<?xml version="1.0" encoding="utf-8"?>
<!-- Generator: Adobe Illustrator 17.0.0, SVG Export Plug-In . SVG Version: 6.00 Build 0)  -->
<!DOCTYPE svg PUBLIC "-//W3C//DTD SVG 1.1 Tiny//EN" "http://www.w3.org/Graphics/SVG/1.1/DTD/svg11-tiny.dtd">
<svg version="1.1" baseProfile="tiny" id="Layer_1" xmlns="http://www.w3.org/2000/svg" xmlns:xlink="http://www.w3.org/1999/xlink"
	 x="0px" y="0px" width="595.305px" height="230.73px" viewBox="0 0 595.305 230.73" xml:space="preserve">
<g>
	<g>
		<path fill="#0089C3" d="M35.046,195.917c0,2.148-0.375,4.138-1.125,5.972c-0.746,1.833-1.792,3.42-3.14,4.766
			c-1.67,1.67-3.644,2.925-5.921,3.76c-2.276,0.833-5.149,1.25-8.621,1.25h-6.44v18.059H3.355v-48.443H16.5
			c2.906,0,5.37,0.243,7.385,0.729c2.02,0.491,3.806,1.254,5.37,2.296c1.843,1.236,3.268,2.776,4.275,4.619
			C34.54,190.767,35.046,193.1,35.046,195.917z M28.344,196.079c0-1.669-0.295-3.12-0.879-4.357
			c-0.585-1.238-1.476-2.246-2.668-3.026c-1.041-0.672-2.228-1.157-3.564-1.448c-1.332-0.294-3.018-0.44-5.059-0.44H9.799v19.36
			h5.432c2.603,0,4.719-0.234,6.344-0.701c1.628-0.466,2.949-1.211,3.971-2.229c1.02-1.041,1.74-2.137,2.165-3.285
			C28.129,198.803,28.344,197.513,28.344,196.079z"/>
		<path fill="#0089C3" d="M71.87,212.186H45.094c0,2.232,0.334,4.179,1.007,5.84c0.672,1.657,1.596,3.02,2.765,4.082
			c1.128,1.042,2.468,1.823,4.021,2.343c1.548,0.521,3.256,0.78,5.122,0.78c2.473,0,4.961-0.491,7.466-1.481
			c2.507-0.985,4.29-1.957,5.352-2.912h0.327v6.672c-2.061,0.867-4.165,1.593-6.312,2.18c-2.149,0.584-4.403,0.876-6.767,0.876
			c-6.031,0-10.736-1.63-14.119-4.896c-3.385-3.262-5.078-7.9-5.078-13.907c0-5.944,1.622-10.661,4.864-14.151
			c3.243-3.494,7.509-5.24,12.803-5.24c4.902,0,8.68,1.433,11.338,4.296c2.658,2.862,3.987,6.929,3.987,12.2
			C71.87,208.868,71.87,212.186,71.87,212.186z M65.916,207.501c-0.024-3.211-0.832-5.694-2.424-7.45
			c-1.594-1.759-4.02-2.638-7.271-2.638c-3.275,0-5.885,0.967-7.824,2.898c-1.945,1.931-3.044,4.326-3.303,7.19H65.916z"/>
		<path fill="#0089C3" d="M100.011,229.397c-1.149,0.303-2.403,0.552-3.757,0.747c-1.356,0.196-2.566,0.292-3.629,0.292
			c-3.709,0-6.526-0.996-8.457-2.993c-1.931-1.993-2.896-5.192-2.896-9.598V198.52H77.14v-5.139h4.132v-10.443h6.116v10.443h12.623
			v5.139H87.387v16.563c0,1.908,0.043,3.399,0.131,4.472c0.087,1.076,0.39,2.077,0.912,3.011c0.477,0.867,1.131,1.501,1.965,1.902
			c0.836,0.4,2.11,0.602,3.825,0.602c0.999,0,2.037-0.144,3.123-0.439c1.084-0.291,1.864-0.537,2.341-0.731h0.326v5.497H100.011z"/>
		<path fill="#0089C3" d="M148.389,229.723h-19.131v-4.944h6.347v-38.556h-6.347v-4.943h19.131v4.943h-6.344v38.556h6.344V229.723z"
			/>
		<path fill="#0089C3" d="M189.253,229.723h-6.117v-20.691c0-1.672-0.096-3.236-0.292-4.706c-0.195-1.46-0.554-2.605-1.073-3.43
			c-0.544-0.911-1.326-1.587-2.345-2.033c-1.018-0.443-2.341-0.666-3.969-0.666c-1.67,0-3.415,0.411-5.237,1.235
			c-1.823,0.823-3.569,1.877-5.238,3.155v27.136h-6.117v-36.342h6.117v4.032c1.908-1.58,3.881-2.817,5.921-3.706
			c2.039-0.892,4.131-1.336,6.278-1.336c3.928,0,6.92,1.183,8.98,3.546c2.06,2.364,3.092,5.771,3.092,10.217L189.253,229.723
			L189.253,229.723z"/>
		<path fill="#0089C3" d="M226.992,219.245c0,3.319-1.371,6.041-4.115,8.167c-2.746,2.123-6.492,3.188-11.239,3.188
			c-2.69,0-5.157-0.323-7.404-0.957c-2.243-0.643-4.125-1.343-5.644-2.1v-6.865h0.326c1.931,1.453,4.079,2.607,6.443,3.467
			c2.363,0.855,4.628,1.281,6.797,1.281c2.69,0,4.795-0.434,6.313-1.301c1.519-0.867,2.278-2.232,2.278-4.1
			c0-1.431-0.413-2.516-1.237-3.251c-0.825-0.74-2.408-1.369-4.751-1.891c-0.868-0.194-2.001-0.421-3.4-0.68
			c-1.398-0.262-2.674-0.542-3.823-0.849c-3.188-0.843-5.449-2.087-6.783-3.726c-1.335-1.634-2.001-3.648-2.001-6.034
			c0-1.495,0.309-2.907,0.928-4.229c0.618-1.321,1.554-2.505,2.813-3.546c1.216-1.02,2.761-1.827,4.638-2.422
			c1.873-0.6,3.974-0.896,6.294-0.896c2.169,0,4.365,0.265,6.589,0.798c2.221,0.529,4.072,1.175,5.544,1.935v6.54h-0.322
			c-1.563-1.152-3.461-2.121-5.694-2.913c-2.233-0.791-4.427-1.188-6.573-1.188c-2.234,0-4.121,0.43-5.661,1.287
			c-1.541,0.854-2.31,2.129-2.31,3.819c0,1.497,0.466,2.627,1.397,3.387c0.913,0.757,2.389,1.377,4.426,1.855
			c1.129,0.26,2.392,0.519,3.792,0.779c1.397,0.261,2.563,0.498,3.496,0.716c2.84,0.65,5.032,1.769,6.573,3.353
			C226.224,214.475,226.992,216.6,226.992,219.245z"/>
		<path fill="#0089C3" d="M265.871,229.723h-6.117v-4.034c-2.062,1.625-4.036,2.874-5.919,3.743c-1.889,0.866-3.971,1.3-6.248,1.3
			c-3.818,0-6.79-1.167-8.914-3.499c-2.125-2.332-3.188-5.753-3.188-10.264v-23.588h6.117v20.691c0,1.844,0.087,3.423,0.262,4.735
			c0.171,1.313,0.539,2.433,1.104,3.367c0.587,0.953,1.343,1.646,2.279,2.082c0.93,0.433,2.288,0.648,4.066,0.648
			c1.583,0,3.314-0.411,5.188-1.234c1.878-0.823,3.629-1.878,5.254-3.155V193.38h6.117v36.343H265.871z"/>
		<path fill="#0089C3" d="M300.586,200.051h-0.326c-0.91-0.218-1.795-0.375-2.65-0.472c-0.859-0.098-1.871-0.148-3.042-0.148
			c-1.888,0-3.711,0.42-5.465,1.254c-1.76,0.834-3.45,1.913-5.076,3.235v25.802h-6.115V193.38h6.115v5.369
			c2.428-1.954,4.569-3.337,6.427-4.146c1.852-0.816,3.744-1.223,5.677-1.223c1.061,0,1.832,0.029,2.308,0.081
			c0.477,0.055,1.193,0.158,2.148,0.309v6.281H300.586z"/>
		<path fill="#0089C3" d="M333.386,229.723h-6.087v-3.874c-0.539,0.368-1.275,0.887-2.194,1.548
			c-0.923,0.66-1.817,1.188-2.684,1.574c-1.02,0.502-2.19,0.918-3.517,1.255c-1.321,0.334-2.875,0.506-4.648,0.506
			c-3.276,0-6.056-1.085-8.33-3.255c-2.28-2.169-3.416-4.935-3.416-8.295c0-2.757,0.59-4.983,1.775-6.686
			c1.18-1.703,2.866-3.044,5.059-4.02c2.212-0.976,4.866-1.636,7.967-1.984c3.101-0.347,6.433-0.607,9.989-0.781v-0.942
			c0-1.39-0.242-2.539-0.73-3.451c-0.49-0.907-1.189-1.625-2.102-2.146c-0.869-0.498-1.905-0.836-3.122-1.008
			c-1.216-0.174-2.483-0.26-3.805-0.26c-1.607,0-3.397,0.212-5.368,0.632c-1.977,0.426-4.016,1.038-6.117,1.839h-0.325v-6.213
			c1.19-0.326,2.917-0.684,5.173-1.074c2.258-0.391,4.478-0.585,6.668-0.585c2.559,0,4.789,0.21,6.689,0.632
			c1.894,0.426,3.541,1.146,4.928,2.165c1.368,0.998,2.408,2.288,3.124,3.872c0.716,1.583,1.075,3.546,1.075,5.89v24.661H333.386z
			 M327.299,220.774v-10.116c-1.863,0.107-4.06,0.27-6.588,0.485c-2.526,0.218-4.526,0.532-6.003,0.944
			c-1.754,0.5-3.177,1.275-4.261,2.327c-1.085,1.053-1.626,2.499-1.626,4.343c0,2.08,0.629,3.65,1.886,4.699
			c1.259,1.055,3.177,1.578,5.759,1.578c2.144,0,4.111-0.416,5.891-1.252C324.134,222.951,325.782,221.945,327.299,220.774z"/>
		<path fill="#0089C3" d="M375.547,229.723h-6.115v-20.691c0-1.672-0.1-3.236-0.291-4.706c-0.198-1.46-0.553-2.605-1.075-3.43
			c-0.544-0.911-1.324-1.587-2.34-2.033c-1.022-0.443-2.345-0.666-3.974-0.666c-1.67,0-3.416,0.411-5.237,1.235
			c-1.82,0.823-3.567,1.877-5.235,3.155v27.136h-6.117v-36.342h6.117v4.032c1.905-1.58,3.879-2.817,5.917-3.706
			c2.04-0.892,4.135-1.336,6.283-1.336c3.924,0,6.917,1.183,8.978,3.546c2.061,2.364,3.09,5.771,3.09,10.217v23.589H375.547z"/>
		<path fill="#0089C3" d="M414.199,227.443c-2.039,0.977-3.974,1.737-5.805,2.279c-1.835,0.542-3.783,0.814-5.841,0.814
			c-2.627,0-5.035-0.385-7.226-1.156c-2.19-0.771-4.067-1.936-5.627-3.498c-1.585-1.561-2.809-3.534-3.675-5.919
			c-0.871-2.388-1.301-5.174-1.301-8.362c0-5.944,1.63-10.605,4.894-13.989c3.264-3.386,7.573-5.077,12.935-5.077
			c2.082,0,4.126,0.293,6.131,0.879c2.005,0.585,3.843,1.302,5.515,2.15v6.797h-0.324c-1.865-1.452-3.788-2.57-5.775-3.351
			c-1.985-0.78-3.924-1.17-5.806-1.17c-3.474,0-6.214,1.166-8.216,3.496c-2.009,2.333-3.012,5.753-3.012,10.266
			c0,4.383,0.984,7.749,2.946,10.101c1.962,2.355,4.72,3.53,8.281,3.53c1.233,0,2.491-0.163,3.772-0.489
			c1.279-0.323,2.429-0.746,3.447-1.266c0.89-0.457,1.727-0.939,2.508-1.447c0.78-0.513,1.396-0.952,1.854-1.318h0.324
			L414.199,227.443L414.199,227.443z"/>
		<path fill="#0089C3" d="M452.46,212.186h-26.773c0,2.232,0.333,4.179,1.008,5.84c0.672,1.657,1.595,3.02,2.766,4.082
			c1.125,1.042,2.466,1.823,4.017,2.343c1.551,0.521,3.262,0.78,5.124,0.78c2.474,0,4.962-0.491,7.466-1.481
			c2.507-0.985,4.29-1.957,5.352-2.912h0.323v6.672c-2.059,0.867-4.16,1.593-6.31,2.18c-2.148,0.584-4.401,0.876-6.767,0.876
			c-6.027,0-10.734-1.63-14.12-4.896c-3.38-3.262-5.076-7.9-5.076-13.907c0-5.944,1.623-10.661,4.863-14.151
			c3.247-3.494,7.509-5.24,12.805-5.24c4.902,0,8.681,1.433,11.336,4.296c2.659,2.862,3.986,6.929,3.986,12.2L452.46,212.186
			L452.46,212.186z M446.508,207.501c-0.024-3.211-0.832-5.694-2.425-7.45c-1.595-1.759-4.017-2.638-7.273-2.638
			c-3.275,0-5.885,0.967-7.823,2.898c-1.939,1.931-3.039,4.326-3.3,7.19H446.508z"/>
	</g>
</g>
<g>
	<path fill="#61B35C" d="M594.943,74.859c-0.92-3.267-2.555-5.44-7.244-5.456c-10.599-0.027-21.227,6.326-23.826,7.933
		c-6.098,3.764-8.799,15.746,3.354,17.276c9.093,1.148,18.971-4.281,21.732-6.099C590.672,87.379,596.851,81.676,594.943,74.859"/>
	<path fill="#61B35C" d="M551.442,54.644c1.44-5.961-3.908-13.525-11.373-8.63c-14.62,9.621-13.229,18.504-13.363,19.92
		c-0.331,3.883,6.868,14.645,14.683,6.955C548.947,65.477,551.442,54.644,551.442,54.644"/>
	<path fill="#61B35C" d="M582.784,61.91c7.763-8.102,0.794-17.873-9.155-15.807c-14.183,2.953-21.963,15.14-22.872,17.932
		c-1.253,3.898-0.501,12.069,10.616,10.012C569.023,72.634,578.313,66.583,582.784,61.91"/>
	<path fill="#61B35C" d="M576.253,112.793c1.565-0.626,5.249-2.998,5.143-6.37c-0.051-1.251-0.12-4.409-4.393-6.559
		c-10.603-5.338-18.44-2.622-20.985-2.198c-2.837,0.48-6.719,3.773-6.574,7.526c0.09,2.924,2.776,5.853,4.979,7.338
		c4.646,3.124,10.882,2.479,12.563,2.539C570.063,115.178,576.253,112.793,576.253,112.793"/>
	<path fill="#61B35C" d="M540.384,79.224c-1.671-0.172-13.19-1.593-21.483-0.013c-0.545,0.105-10.905,3.209-5.752,14.534
		c5.553,12.242,12.234,16.949,13.351,17.645c1.09,0.686,6.494,4.442,11.685-0.893c5.822-6.002,10.306-13.393,11.669-17.692
		C551.134,88.744,552.178,80.441,540.384,79.224"/>
	<path fill="#61B35C" d="M464.621,109.496h0.61c0.703,0,1.282-0.252,1.282-0.916c0-0.463-0.328-0.923-1.282-0.923
		c-0.283,0-0.477,0.01-0.61,0.038V109.496z M464.621,112.457h-0.861v-5.334c0.447-0.068,0.867-0.126,1.497-0.126
		c0.827,0,1.348,0.16,1.671,0.397c0.319,0.238,0.48,0.595,0.48,1.108c0,0.698-0.464,1.123-1.045,1.301v0.04
		c0.476,0.084,0.806,0.507,0.906,1.295c0.122,0.834,0.252,1.141,0.347,1.319h-0.902c-0.124-0.178-0.253-0.661-0.356-1.364
		c-0.135-0.682-0.473-0.934-1.153-0.934h-0.583L464.621,112.457L464.621,112.457z M465.5,105.633c-2.097,0-3.83,1.807-3.83,4.047
		c0,2.262,1.733,4.046,3.858,4.046c2.118,0.02,3.816-1.785,3.816-4.035c0-2.252-1.698-4.059-3.816-4.059H465.5V105.633z
		 M465.528,104.893c2.599,0,4.7,2.122,4.7,4.787c0,2.69-2.102,4.794-4.728,4.794c-2.615,0-4.745-2.104-4.745-4.794
		c0-2.665,2.13-4.787,4.745-4.787H465.528z"/>
	<path fill="#61B35C" d="M462.579,21.51c-1.727-5.891-10.136-9.79-14.151-1.824c-7.906,15.601-2.291,22.636-1.696,23.918
		c1.643,3.538,13.248,9.293,16.2-1.267C465.787,32.143,462.579,21.51,462.579,21.51"/>
	<path fill="#61B35C" d="M465.207,48.338c-1.541,0.678-12.229,5.185-18.64,10.669c-0.431,0.358-7.859,8.212,2.23,15.472
		c10.922,7.854,19.053,8.614,20.364,8.671c1.318,0.044,7.848,0.614,9.704-6.592c2.072-8.106,2.278-16.745,1.315-21.149
		C479.27,51.24,476.044,43.524,465.207,48.338"/>
	<path fill="#61B35C" d="M493.368,12.216c2.707-10.885-8.198-15.901-15.79-9.158c-10.838,9.621-11.524,24.068-10.911,26.939
		c0.84,4.001,5.553,10.721,14.177,3.396C486.78,28.363,491.813,18.492,493.368,12.216"/>
	<path fill="#61B35C" d="M510.597,17.841c-2.372-2.443-4.845-3.582-8.969-1.372c-9.351,5.015-15.665,15.649-17.199,18.31
		c-3.585,6.205-0.269,18.022,11.159,13.602c8.538-3.308,14.651-12.777,16.213-15.693C512.788,30.875,515.508,22.917,510.597,17.841"
		/>
	<path fill="#61B35C" d="M512.669,60.182c1.053-1.327,3.066-5.222,1.288-8.081c-0.665-1.07-2.294-3.771-7.072-3.511
		c-11.828,0.64-17.287,6.907-19.281,8.545c-2.235,1.818-3.962,6.604-1.986,9.799c1.543,2.485,5.33,3.7,7.981,3.893
		c5.581,0.384,10.678-3.275,12.168-4.068C508.476,65.326,512.669,60.182,512.669,60.182"/>
	<path fill="#0089C3" d="M34.074,74.162h2.415c5.719,0,11.432-0.889,11.432-8.005c0-7.376-5.207-8.265-11.179-8.265h-2.667
		L34.074,74.162L34.074,74.162z M0,31.702h42.076c21.603,0,39.918,9.153,39.918,33.303c0,14.495-5.588,20.599-18.565,24.917v0.764
		c1.792,1.398,3.954,2.914,5.848,5.719l20.859,31.14H49.964L34.701,96.792h-0.626v30.754H0V31.702z"/>
	<path fill="#0089C3" d="M101.949,93.232l1.785,1.391c6.222,4.838,13.725,8.776,21.73,8.776c3.43,0,8.9-1.4,8.9-5.722
		c0-4.329-4.579-4.7-7.757-5.338l-6.988-1.265c-13.604-2.423-25.047-10.433-25.047-25.427c0-22.755,20.729-35.471,41.567-35.471
		c10.938,0,20.975,2.674,30.389,8.394l-9.414,24.529c-5.985-4.068-12.702-7.243-20.208-7.243c-3.048,0-7.502,1.144-7.502,5.084
		c0,3.556,4.321,4.064,6.998,4.706l7.874,1.784c14.75,3.301,25.418,11.18,25.418,27.451c0,22.879-20.846,34.194-41.563,34.194
		c-12.072,0-26.049-3.305-36.867-8.768L101.949,93.232z"/>
	<path fill="#0089C3" d="M214.066,74.542h3.436c6.099,0,12.705-1.014,12.705-8.765c0-7.501-7.117-7.886-12.84-7.886h-3.3v16.651
		H214.066z M180.506,31.702h44.104c22.379,0,38.898,11.44,38.898,35.212c0,19.576-12.2,31.779-31.65,31.779h-17.791v28.853h-33.561
		V31.702z"/>
	<path fill="#0089C3" d="M344.098,70.603c-5.592-5.219-12.571-9.662-20.469-9.662c-10.427,0-18.938,8.267-18.938,18.686
		c0,10.552,9.034,18.682,19.442,18.682c8.021,0,14.372-3.427,19.964-8.89l-1.009,35.843c-5.593,2.667-18.561,3.813-24.792,3.813
		c-27.323,0-48.685-21.228-48.685-48.556c0-27.964,21.988-50.343,50.079-50.343c7.885,0,16.027,1.402,23.398,3.947L344.098,70.603z"
		/>
	<path fill="#0089C3" d="M407.659,92.845l-4.068-16.901c-1.027-4.068-1.657-8.268-2.293-12.338h-1.268l-6.356,29.239H407.659z
		 M384.65,127.546h-36.858l33.291-95.844h38.52l34.191,95.844h-36.857l-3.177-11.936h-26.315L384.65,127.546z"/>
</g>
</svg>
